<svg width="96" height="96" xmlns="http://www.w3.org/2000/svg" xmlns:xlink="http://www.w3.org/1999/xlink" xml:space="preserve" overflow="hidden"><defs><clipPath id="clip0"><rect x="337" y="260" width="96" height="96"/></clipPath></defs><g clip-path="url(#clip0)" transform="translate(-337 -260)"><path d="M422.5 335.6 410 323.1C408.3 321.4 406 320.8 403.8 321.2L399.4 316.8C403.3 311.8 405.6 305.4 405.6 298.6 405.6 282.1 392.1 268.6 375.6 268.6 359.1 268.6 345.6 282.1 345.6 298.6 345.6 315.1 359.1 328.6 375.6 328.6 382.4 328.6 388.7 326.3 393.8 322.4L398.2 326.8C397.8 329 398.4 331.3 400.1 333L412.6 345.5C414 346.9 415.8 347.6 417.6 347.6 419.4 347.6 421.2 346.9 422.6 345.5 425.2 342.7 425.2 338.3 422.5 335.6ZM375.5 322.5C362.3 322.5 351.5 311.7 351.5 298.5 351.5 285.3 362.3 274.5 375.5 274.5 388.7 274.5 399.5 285.3 399.5 298.5 399.5 311.7 388.7 322.5 375.5 322.5Z" stroke="#000000" stroke-width="1.33333" fill="#FFFFFF"/></g></svg>